<svg width="229" height="229" viewBox="0 0 229 229" fill="none" xmlns="http://www.w3.org/2000/svg">
<circle cx="114.5" cy="114.5" r="114.5" fill="#89FEFE"/>
<path d="M146 146V158H85V147.688L114.625 115.375C117.875 111.708 120.438 108.542 122.312 105.875C124.188 103.208 125.5 100.812 126.25 98.6875C127.042 96.5208 127.438 94.4167 127.438 92.375C127.438 89.5 126.896 86.9792 125.812 84.8125C124.771 82.6042 123.229 80.875 121.188 79.625C119.146 78.3333 116.667 77.6875 113.75 77.6875C110.375 77.6875 107.542 78.4167 105.25 79.875C102.958 81.3333 101.229 83.3542 100.062 85.9375C98.8958 88.4792 98.3125 91.3958 98.3125 94.6875H83.25C83.25 89.3958 84.4583 84.5625 86.875 80.1875C89.2917 75.7708 92.7917 72.2708 97.375 69.6875C101.958 67.0625 107.479 65.75 113.938 65.75C120.021 65.75 125.188 66.7708 129.438 68.8125C133.688 70.8542 136.917 73.75 139.125 77.5C141.375 81.25 142.5 85.6875 142.5 90.8125C142.5 93.6458 142.042 96.4583 141.125 99.25C140.208 102.042 138.896 104.833 137.188 107.625C135.521 110.375 133.542 113.146 131.25 115.938C128.958 118.688 126.438 121.479 123.688 124.312L104 146H146Z" fill="#13386E"/>
</svg>
