<svg width="229" height="229" viewBox="0 0 229 229" fill="none" xmlns="http://www.w3.org/2000/svg">
<circle cx="114.5" cy="114.5" r="114.5" fill="#89FEFE"/>
<path d="M102.688 105.688H111.688C115.188 105.688 118.083 105.083 120.375 103.875C122.708 102.667 124.438 101 125.562 98.875C126.688 96.75 127.25 94.3125 127.25 91.5625C127.25 88.6875 126.729 86.2292 125.688 84.1875C124.688 82.1042 123.146 80.5 121.062 79.375C119.021 78.25 116.417 77.6875 113.25 77.6875C110.583 77.6875 108.167 78.2292 106 79.3125C103.875 80.3542 102.188 81.8542 100.938 83.8125C99.6875 85.7292 99.0625 88.0208 99.0625 90.6875H83.9375C83.9375 85.8542 85.2083 81.5625 87.75 77.8125C90.2917 74.0625 93.75 71.125 98.125 69C102.542 66.8333 107.5 65.75 113 65.75C118.875 65.75 124 66.7292 128.375 68.6875C132.792 70.6042 136.229 73.4792 138.688 77.3125C141.146 81.1458 142.375 85.8958 142.375 91.5625C142.375 94.1458 141.771 96.7708 140.562 99.4375C139.354 102.104 137.562 104.542 135.188 106.75C132.812 108.917 129.854 110.688 126.312 112.062C122.771 113.396 118.667 114.062 114 114.062H102.688V105.688ZM102.688 117.438V109.188H114C119.333 109.188 123.875 109.812 127.625 111.062C131.417 112.312 134.5 114.042 136.875 116.25C139.25 118.417 140.979 120.896 142.062 123.688C143.188 126.479 143.75 129.438 143.75 132.562C143.75 136.812 142.979 140.604 141.438 143.938C139.938 147.229 137.792 150.021 135 152.312C132.208 154.604 128.938 156.333 125.188 157.5C121.479 158.667 117.438 159.25 113.062 159.25C109.146 159.25 105.396 158.708 101.812 157.625C98.2292 156.542 95.0208 154.938 92.1875 152.812C89.3542 150.646 87.1042 147.958 85.4375 144.75C83.8125 141.5 83 137.75 83 133.5H98.0625C98.0625 136.208 98.6875 138.604 99.9375 140.688C101.229 142.729 103.021 144.333 105.312 145.5C107.646 146.667 110.312 147.25 113.312 147.25C116.479 147.25 119.208 146.688 121.5 145.562C123.792 144.438 125.542 142.771 126.75 140.562C128 138.354 128.625 135.688 128.625 132.562C128.625 129.021 127.938 126.146 126.562 123.938C125.188 121.729 123.229 120.104 120.688 119.062C118.146 117.979 115.146 117.438 111.688 117.438H102.688Z" fill="#13386E"/>
</svg>
