<svg width="229" height="229" viewBox="0 0 229 229" fill="none" xmlns="http://www.w3.org/2000/svg">
<circle cx="114.5" cy="114.5" r="114.5" fill="#89FEFE"/>
<path d="M100.812 115.688L88.8125 112.75L93.75 67H142.812V79.75H106.25L103.75 102.062C105.167 101.229 107.125 100.417 109.625 99.625C112.125 98.7917 114.979 98.375 118.188 98.375C122.479 98.375 126.312 99.0833 129.688 100.5C133.104 101.875 136 103.896 138.375 106.562C140.75 109.188 142.562 112.396 143.812 116.188C145.062 119.938 145.688 124.167 145.688 128.875C145.688 133.083 145.062 137.021 143.812 140.688C142.604 144.354 140.771 147.583 138.312 150.375C135.854 153.167 132.75 155.354 129 156.938C125.292 158.479 120.896 159.25 115.812 159.25C112.021 159.25 108.375 158.708 104.875 157.625C101.417 156.5 98.3125 154.854 95.5625 152.688C92.8125 150.479 90.6042 147.771 88.9375 144.562C87.2708 141.312 86.3125 137.583 86.0625 133.375H100.812C101.188 136.333 102 138.854 103.25 140.938C104.542 142.979 106.25 144.542 108.375 145.625C110.5 146.708 112.958 147.25 115.75 147.25C118.292 147.25 120.479 146.812 122.312 145.938C124.146 145.021 125.667 143.729 126.875 142.062C128.125 140.354 129.042 138.354 129.625 136.062C130.25 133.771 130.562 131.229 130.562 128.438C130.562 125.771 130.208 123.333 129.5 121.125C128.833 118.917 127.812 117 126.438 115.375C125.104 113.75 123.417 112.5 121.375 111.625C119.333 110.708 116.979 110.25 114.312 110.25C110.729 110.25 107.979 110.771 106.062 111.812C104.188 112.854 102.438 114.146 100.812 115.688Z" fill="#13386E"/>
</svg>
